<?xml version="1.0" encoding="UTF-8"?>
<!DOCTYPE svg PUBLIC "-//W3C//DTD SVG 1.1//EN" "http://www.w3.org/Graphics/SVG/1.1/DTD/svg11.dtd">
<!-- Creator: CorelDRAW -->
<svg xmlns="http://www.w3.org/2000/svg" xml:space="preserve" width="5.2916mm" height="5.2913mm" version="1.1" style="shape-rendering:geometricPrecision; text-rendering:geometricPrecision; image-rendering:optimizeQuality; fill-rule:evenodd; clip-rule:evenodd"
viewBox="0 0 529.16 529.13"
 xmlns:xlink="http://www.w3.org/1999/xlink"
 xmlns:xodm="http://www.corel.com/coreldraw/odm/2003">
 <defs>
  <style type="text/css">
   <![CDATA[
    .fil0 {fill:#EF7F1A;fill-rule:nonzero}
    .fil2 {fill:#7E71B1;fill-rule:nonzero}
    .fil1 {fill:#009846;fill-rule:nonzero}
   ]]>
  </style>
 </defs>
 <g id="Layer_x0020_1">
  <metadata id="CorelCorpID_0Corel-Layer"/>
  <path class="fil0" d="M244.74 0c-34.39,0 -64.07,20.18 -77.82,49.36l-1.56 3.55 47.01 -0.03c7.5,-7.34 17.48,-12.14 28.57,-13.04l3.8 -0.16 198.43 0c24.3,0 44.22,18.71 46.15,42.51l0.16 3.8 0 198.43c0,12.62 -5.05,24.06 -13.24,32.41l0.01 46.99c29.65,-12.36 50.89,-40.85 52.78,-74.52l0.13 -4.88 0 -198.43c0,-45.86 -35.89,-83.33 -81.11,-85.86l-4.88 -0.13 -198.43 0z"/>
  <path class="fil1" d="M165.36 79.37c-2.13,0 -4.25,0.08 -6.34,0.23 -33,2.41 -60.84,23.44 -73.04,52.64l47.04 -0.02c7.5,-7.31 17.47,-12.11 28.54,-13.01l3.8 -0.15 198.44 0c24.29,0 44.22,18.71 46.15,42.5l0.15 3.8 0 198.44 -0.29 5.18c-1.17,10.55 -5.89,20.04 -12.94,27.23l0 46.99c29.65,-12.37 50.9,-40.86 52.78,-74.52l0.14 -4.88 0 -198.44c0,-45.85 -35.89,-83.32 -81.11,-85.85l-4.88 -0.14 -198.44 0z"/>
  <path class="fil2" d="M330.73 443.14l-0.12 3.37 -0.49 4.14c-3.39,20.78 -20.61,36.91 -41.9,38.64l-3.8 0.15 -198.43 0c-24.3,0 -44.22,-18.71 -46.15,-42.5l-0.16 -3.8 0 -198.44c0,-25.57 20.73,-46.3 46.31,-46.3l198.43 0c24.3,0 44.22,18.71 46.15,42.51l0.16 3.79 0 198.44zm-46.31 -284.43l-198.43 0 -6.34 0.23c-42.93,3.13 -77.11,37.77 -79.52,80.88l-0.13 4.88 0 198.44c0,45.85 35.89,83.32 81.11,85.85l4.88 0.14 198.43 0c45.86,0 83.33,-35.89 85.86,-81.11l0.13 -4.88 0 -198.44c0,-45.85 -35.89,-83.32 -81.11,-85.85l-4.88 -0.14z"/>
 </g>
</svg>
