<?xml version="1.0" ?><svg height="128" id="svg8" version="1.1" viewBox="0 0 33.866666 33.866668" width="128" xmlns="http://www.w3.org/2000/svg" xmlns:svg="http://www.w3.org/2000/svg"><defs id="defs2"><clipPath clipPathUnits="userSpaceOnUse" id="clipPath5292"><ellipse cx="554.68481" cy="1234.8002" id="ellipse5294" rx="46.906162" ry="46.90797" style="display:inline;opacity:0.469;fill:#ffaaaa;fill-rule:evenodd;stroke:#333333;stroke-width:3.5625;stroke-linecap:round;stroke-linejoin:round;stroke-miterlimit:4;stroke-dasharray:none;stroke-dashoffset:6.5999999;stroke-opacity:1"/></clipPath><clipPath clipPathUnits="userSpaceOnUse" id="clipPath6174"><ellipse cx="128.2972" cy="1416.0679" id="ellipse6176" rx="55.76445" ry="55.766594" style="display:inline;opacity:0.572;fill:#ff9696;fill-opacity:1;fill-rule:evenodd;stroke:#333333;stroke-width:4.21448183;stroke-linecap:round;stroke-linejoin:round;stroke-miterlimit:4;stroke-dasharray:none;stroke-dashoffset:6.5999999;stroke-opacity:1"/></clipPath></defs><g id="layer1" transform="translate(0,-263.13332)"><g id="g10821" transform="matrix(0.33158782,0,0,0.33158782,-221.21889,-160.2897)"><ellipse cx="718.21765" cy="1328.0233" id="ellipse6445" rx="50.617413" ry="50.619358" style="display:inline;fill:#ffaaaa;fill-opacity:1;fill-rule:evenodd;stroke:none;stroke-width:3.82548666;stroke-linecap:round;stroke-linejoin:round;stroke-miterlimit:4;stroke-dasharray:none;stroke-dashoffset:6.5999999;stroke-opacity:1"/><g clip-path="url(#clipPath6174)" id="g6493" style="stroke:none" transform="matrix(0.90770036,0,0,0.90770036,601.76228,42.65795)"><path d="m 142.03636,1445.5502 c 15.99409,-3.4979 21.06314,-5.8307 26.6661,-16.428 -5.7207,2.8441 -8.68465,4.2106 -16.89479,6.6211 7.71587,-5.0113 5.49129,-10.9546 9.54418,-21.2601 -8.32595,7.3673 -12.90802,6.3669 -15.68736,17.7133 0.90031,-5.1299 -1.65367,-7.048 -1.47097,-15.4892 -7.13321,10.5981 -5.8844,18.4772 -2.15716,28.8429 z" id="path6447" style="fill:#677821;fill-rule:evenodd;stroke:none;stroke-width:3.56249976;stroke-linecap:round;stroke-linejoin:round;stroke-miterlimit:4;stroke-dasharray:none;stroke-opacity:1"/><path d="m 114.55804,1445.2421 c -15.994092,-3.4979 -21.063141,-5.8307 -26.66611,-16.428 5.720708,2.8441 8.684652,4.2106 16.8948,6.621 -7.715876,-5.0112 -5.491291,-10.9546 -9.544183,-21.26 8.325953,7.3673 12.908023,6.3669 15.687353,17.7133 -0.9003,-5.1299 0.19788,-6.866 0.0152,-15.3072 7.13321,10.5981 7.3402,18.2951 3.61296,28.6609 z" id="path6449" style="fill:#677821;fill-rule:evenodd;stroke:none;stroke-width:3.56249976;stroke-linecap:round;stroke-linejoin:round;stroke-miterlimit:4;stroke-dasharray:none;stroke-opacity:1"/><path d="m 128.35692,1444.1697 c 14.24502,-12.3921 17.9998,-17.486 17.17254,-30.7569 -4.24322,5.8407 -8.31381,7.3201 -13.23082,15.8782 6.43386,-7.3705 -0.94109,-13.2683 -3.40071,-25.6627 -8.04331,12.1573 -10.32078,13.4839 -5.10616,25.7629 -0.95198,-5.136 -3.23471,-6.3289 -13.71363,-15.5605 -0.74289,14.1383 8.01882,22.5737 18.27878,30.339 z" id="path6451" style="fill:#849b2a;fill-opacity:1;fill-rule:nonzero;stroke:none;stroke-width:3.24336147;stroke-linecap:round;stroke-linejoin:round;stroke-miterlimit:4;stroke-dasharray:none;stroke-opacity:1"/><path d="m 116.08142,1497.0024 c 6.11529,7.4358 15.28126,12.1722 25.60096,0 2.82088,-3.3273 30.79042,-41.7027 16.84273,-56.6856 -12.43548,-13.3585 -48.31321,-11.7523 -60.633846,1.6795 -13.87159,15.1226 15.807306,52.1086 18.190156,55.0061 z" id="path6453" style="fill:#ff5555;fill-rule:evenodd;stroke:none;stroke-width:3.44259524;stroke-linecap:round;stroke-linejoin:round;stroke-miterlimit:4;stroke-dasharray:none;stroke-opacity:1"/><g id="g6467" style="fill:#c83737;fill-opacity:1;stroke:none" transform="translate(-0.25735194,2.8308713)"><circle cx="152.03972" cy="1457.1008" id="circle6457" r="2.1843197" style="fill:#c83737;fill-opacity:1;fill-rule:evenodd;stroke:none;stroke-width:3.56249976;stroke-linecap:butt;stroke-linejoin:miter;stroke-miterlimit:4;stroke-dasharray:none;stroke-opacity:1"/><circle cx="145.659" cy="1448.7051" id="circle6459" r="2.1843197" style="fill:#c83737;fill-opacity:1;fill-rule:evenodd;stroke:none;stroke-width:3.56249976;stroke-linecap:butt;stroke-linejoin:miter;stroke-miterlimit:4;stroke-dasharray:none;stroke-opacity:1"/></g><g id="g6479" style="stroke:none"><circle cx="122.83147" cy="1493.433" id="circle6469" r="2.1843197" style="fill:#a02c2c;fill-opacity:1;fill-rule:evenodd;stroke:none;stroke-width:3.56249976;stroke-linecap:butt;stroke-linejoin:miter;stroke-miterlimit:4;stroke-dasharray:none;stroke-opacity:1"/><circle cx="116.45077" cy="1484.8694" id="circle6471" r="2.1843197" style="fill:#a02c2c;fill-opacity:1;fill-rule:evenodd;stroke:none;stroke-width:3.56249976;stroke-linecap:butt;stroke-linejoin:miter;stroke-miterlimit:4;stroke-dasharray:none;stroke-opacity:1"/><circle cx="126.69348" cy="1485.541" id="circle6473" r="2.1843197" style="fill:#a02c2c;fill-opacity:1;fill-rule:evenodd;stroke:none;stroke-width:3.56249976;stroke-linecap:butt;stroke-linejoin:miter;stroke-miterlimit:4;stroke-dasharray:none;stroke-opacity:1"/><circle cx="110.07007" cy="1475.4662" id="circle6475" r="2.1843197" style="fill:#a02c2c;fill-opacity:1;fill-rule:evenodd;stroke:none;stroke-width:3.56249976;stroke-linecap:butt;stroke-linejoin:miter;stroke-miterlimit:4;stroke-dasharray:none;stroke-opacity:1"/><circle cx="119.64112" cy="1476.8096" id="circle6477" r="2.1843197" style="fill:#a02c2c;fill-opacity:1;fill-rule:evenodd;stroke:none;stroke-width:3.56249976;stroke-linecap:butt;stroke-linejoin:miter;stroke-miterlimit:4;stroke-dasharray:none;stroke-opacity:1"/></g><g id="g6491" style="fill:#c83737;fill-opacity:1;stroke:none" transform="matrix(-1,0,0,1,256.52445,2.8308713)"><circle cx="152.03972" cy="1457.1008" id="circle6481" r="2.1843197" style="fill:#c83737;fill-opacity:1;fill-rule:evenodd;stroke:none;stroke-width:3.56249976;stroke-linecap:butt;stroke-linejoin:miter;stroke-miterlimit:4;stroke-dasharray:none;stroke-opacity:1"/><circle cx="145.659" cy="1448.7051" id="circle6483" r="2.1843197" style="fill:#c83737;fill-opacity:1;fill-rule:evenodd;stroke:none;stroke-width:3.56249976;stroke-linecap:butt;stroke-linejoin:miter;stroke-miterlimit:4;stroke-dasharray:none;stroke-opacity:1"/><circle cx="155.9017" cy="1449.2089" id="circle6485" r="2.1843197" style="fill:#c83737;fill-opacity:1;fill-rule:evenodd;stroke:none;stroke-width:3.56249976;stroke-linecap:butt;stroke-linejoin:miter;stroke-miterlimit:4;stroke-dasharray:none;stroke-opacity:1"/><circle cx="148.84933" cy="1440.4774" id="circle6489" r="2.1843197" style="fill:#c83737;fill-opacity:1;fill-rule:evenodd;stroke:none;stroke-width:3.56249976;stroke-linecap:butt;stroke-linejoin:miter;stroke-miterlimit:4;stroke-dasharray:none;stroke-opacity:1"/></g></g><path d="m 735.54058,1351.7474 c 5.88165,2.1693 8.45606,7.5504 9.10942,11.4586" id="path6542" style="opacity:1;vector-effect:none;fill:none;fill-opacity:1;fill-rule:evenodd;stroke:#ffffff;stroke-width:3.37300563;stroke-linecap:round;stroke-linejoin:round;stroke-miterlimit:4;stroke-dasharray:none;stroke-dashoffset:0;stroke-opacity:1"/></g></g></svg>